<svg id="icon" height="512" viewBox="0 0 128 128" width="512" xmlns="http://www.w3.org/2000/svg"><path d="m23 41.107v57.915a3.525 3.525 0 0 0 3.526 3.525h74.948a3.525 3.525 0 0 0 3.526-3.525v-57.915z" fill="#eeefee"/><path d="m101.474 25.453h-74.948a3.525 3.525 0 0 0 -3.526 3.525v13.8h82v-13.8a3.525 3.525 0 0 0 -3.526-3.525z" fill="#62667c"/><circle cx="72.981" cy="34.113" fill="#2cbfae" r="3.174"/><circle cx="84.205" cy="34.113" fill="#f6c863" r="3.174"/><g fill="#ef5261"><circle cx="95.428" cy="34.113" r="3.174"/><path d="m50.735 53.147v6.672h14.36v9.362h-14.36v6.672l-14.823-11.353z"/><path d="m77.265 90.508v-6.672h-14.36v-9.363h14.36v-6.671l14.823 11.353z"/></g></svg>